<svg width="23" height="24" viewBox="0 0 23 24" fill="none" xmlns="http://www.w3.org/2000/svg">
<path d="M22.0889 10.6417V3.275C22.0889 1.65 21.4223 1 19.766 1H15.5577C13.9014 1 13.2348 1.65 13.2348 3.275V10.6417C13.2348 12.2667 13.9014 12.9167 15.5577 12.9167H19.766C21.4223 12.9167 22.0889 12.2667 22.0889 10.6417ZM22.0889 20.3917V18.4417C22.0889 16.8167 21.4223 16.1667 19.766 16.1667H15.5577C13.9014 16.1667 13.2348 16.8167 13.2348 18.4417V20.3917C13.2348 22.0167 13.9014 22.6667 15.5577 22.6667H19.766C21.4223 22.6667 22.0889 22.0167 22.0889 20.3917ZM10.1098 13.025V20.3917C10.1098 22.0167 9.44312 22.6667 7.78687 22.6667H3.57853C1.92228 22.6667 1.25562 22.0167 1.25562 20.3917V13.025C1.25562 11.4 1.92228 10.75 3.57853 10.75H7.78687C9.44312 10.75 10.1098 11.4 10.1098 13.025ZM10.1098 3.275V5.225C10.1098 6.85 9.44312 7.5 7.78687 7.5H3.57853C1.92228 7.5 1.25562 6.85 1.25562 5.225V3.275C1.25562 1.65 1.92228 1 3.57853 1H7.78687C9.44312 1 10.1098 1.65 10.1098 3.275Z" stroke="#A6A6A6" stroke-width="1.5" stroke-linecap="round" stroke-linejoin="round"/>
</svg>
