<svg width="31" height="32" viewBox="0 0 31 32" fill="none" xmlns="http://www.w3.org/2000/svg">
<g clip-path="url(#clip0_226_3)">
<path d="M30.0416 14.2584V3.49169C30.0416 1.11669 29.0283 0.166687 26.5108 0.166687H20.1141C17.5966 0.166687 16.5833 1.11669 16.5833 3.49169V14.2584C16.5833 16.6334 17.5966 17.5834 20.1141 17.5834H26.5108C29.0283 17.5834 30.0416 16.6334 30.0416 14.2584ZM13.4166 17.7417V28.5084C13.4166 30.8834 12.4033 31.8334 9.88575 31.8334H3.48909C0.971585 31.8334 -0.041748 30.8834 -0.041748 28.5084V17.7417C-0.041748 15.3667 0.971585 14.4167 3.48909 14.4167H9.88575C12.4033 14.4167 13.4166 15.3667 13.4166 17.7417ZM30.0416 28.5084V24.075C30.0416 21.7 29.0283 20.75 26.5108 20.75H20.1141C17.5966 20.75 16.5833 21.7 16.5833 24.075V28.5084C16.5833 30.8834 17.5966 31.8334 20.1141 31.8334H26.5108C29.0283 31.8334 30.0416 30.8834 30.0416 28.5084ZM13.4166 7.92502V3.49169C13.4166 1.11669 12.4033 0.166687 9.88575 0.166687H3.48909C0.971585 0.166687 -0.041748 1.11669 -0.041748 3.49169V7.92502C-0.041748 10.3 0.971585 11.25 3.48909 11.25H9.88575C12.4033 11.25 13.4166 10.3 13.4166 7.92502Z" fill="white"/>
</g>
<defs>
<clipPath id="clip0_226_3">
<rect width="31" height="32" fill="white"/>
</clipPath>
</defs>
</svg>
