<svg width="30" height="28" viewBox="0 0 30 28" fill="none" xmlns="http://www.w3.org/2000/svg">
<path d="M24.9781 9.79653V18.3465C24.9781 19.7465 24.2281 21.0465 23.0156 21.759L15.5906 26.0465C14.3781 26.7465 12.8781 26.7465 11.6531 26.0465L4.22813 21.759C3.63035 21.4124 3.1343 20.9146 2.78982 20.3156C2.44533 19.7166 2.26455 19.0375 2.26563 18.3465V9.79653C2.26563 8.39653 3.01563 7.09653 4.22813 6.38403L11.6531 2.09653C12.8656 1.39653 14.3656 1.39653 15.5906 2.09653L23.0156 6.38403C24.2281 7.09653 24.9781 8.38403 24.9781 9.79653Z" stroke="#A6A6A6" stroke-width="1.5" stroke-linecap="round" stroke-linejoin="round"/>
<path d="M18.6282 19.8965C18.6282 17.6465 16.3907 15.8215 13.6282 15.8215C10.8657 15.8215 8.62817 17.6465 8.62817 19.8965M13.6282 12.8215C14.4006 12.8215 15.1414 12.5147 15.6876 11.9685C16.2338 11.4223 16.5407 10.6815 16.5407 9.90902C16.5407 9.13658 16.2338 8.39577 15.6876 7.84957C15.1414 7.30337 14.4006 6.99652 13.6282 6.99652C12.8557 6.99652 12.1149 7.30337 11.5687 7.84957C11.0225 8.39577 10.7157 9.13658 10.7157 9.90902C10.7157 10.6815 11.0225 11.4223 11.5687 11.9685C12.1149 12.5147 12.8557 12.8215 13.6282 12.8215Z" stroke="#A6A6A6" stroke-width="1.5" stroke-linecap="round" stroke-linejoin="round"/>
</svg>
