<svg width="30" height="32" viewBox="0 0 30 32" fill="none" xmlns="http://www.w3.org/2000/svg">
<g clip-path="url(#clip0_226_25)">
<path d="M26.894 6.26249L17.489 0.831657C15.9531 -0.0550101 14.0531 -0.0550101 12.5015 0.831657L3.1123 6.26249C2.35511 6.70151 1.72678 7.33206 1.29044 8.09079C0.854098 8.84953 0.625106 9.70973 0.626471 10.585V21.415C0.626471 23.1883 1.57647 24.835 3.1123 25.7375L12.5173 31.1683C14.0531 32.055 15.9531 32.055 17.5048 31.1683L26.9098 25.7375C27.667 25.2985 28.2953 24.6679 28.7317 23.9092C29.168 23.1504 29.397 22.2902 29.3956 21.415V10.585C29.3887 9.70953 29.1546 8.85088 28.716 8.09314C28.2775 7.33541 27.6496 6.70459 26.894 6.26249ZM15.0031 8.62166C17.0456 8.62166 18.6923 10.2683 18.6923 12.3108C18.6923 14.3533 17.0456 16 15.0031 16C12.9606 16 11.314 14.3533 11.314 12.3108C11.314 10.2842 12.9606 8.62166 15.0031 8.62166ZM19.2465 23.3783H10.7598C9.4773 23.3783 8.73314 21.9533 9.44564 20.8925C10.5223 19.2933 12.6123 18.2167 15.0031 18.2167C17.394 18.2167 19.484 19.2933 20.5606 20.8925C21.2731 21.9375 20.5131 23.3783 19.2465 23.3783Z" fill="white"/>
</g>
<defs>
<clipPath id="clip0_226_25">
<rect width="30" height="32" fill="white"/>
</clipPath>
</defs>
</svg>
