<svg width="30" height="27" viewBox="0 0 30 27" fill="none" xmlns="http://www.w3.org/2000/svg">
<g clip-path="url(#clip0_334_17)">
<path d="M12.9291 4.4316V24.3584H17.9108V4.4316C17.9108 3.21385 17.4126 2.21751 15.9181 2.21751H14.9218C13.4273 2.21751 12.9291 3.21385 12.9291 4.4316V4.4316ZM5.45654 11.0739V24.3584H9.88473V11.0739C9.88473 9.85613 9.44191 8.85979 8.11345 8.85979H7.22782C5.89936 8.85979 5.45654 9.85613 5.45654 11.0739ZM20.9552 16.6091V24.3584H25.3834V16.6091C25.3834 15.3914 24.9405 14.395 23.6121 14.395H22.7265C21.398 14.395 20.9552 15.3914 20.9552 16.6091V16.6091Z" stroke="#A6A6A6" stroke-width="1.5" stroke-linecap="round" stroke-linejoin="round"/>
</g>
<defs>
<clipPath id="clip0_334_17">
<rect width="29.3986" height="26.5691" fill="white" transform="translate(0.217163 0.00341797)"/>
</clipPath>
</defs>
</svg>
