<svg width="33" height="32" viewBox="0 0 33 32" fill="none" xmlns="http://www.w3.org/2000/svg">
<g clip-path="url(#clip0_226_59)">
<path d="M31.3837 32.0621H1.35355C0.737929 32.0621 0.227417 31.5334 0.227417 30.8957C0.227417 30.2581 0.737929 29.7294 1.35355 29.7294H31.3837C31.9993 29.7294 32.5098 30.2581 32.5098 30.8957C32.5098 31.5334 31.9993 32.0621 31.3837 32.0621Z" fill="white"/>
<path d="M12.9901 4.06975V32.0621H19.7469V4.06975C19.7469 2.35911 19.0712 0.959488 17.0442 0.959488H15.6929C13.6658 0.959488 12.9901 2.35911 12.9901 4.06975ZM2.85498 13.4005V32.0621H8.86101V13.4005C8.86101 11.6899 8.2604 10.2903 6.4586 10.2903H5.25739C3.45558 10.2903 2.85498 11.6899 2.85498 13.4005ZM23.8761 21.1762V32.0621H29.8821V21.1762C29.8821 19.4656 29.2815 18.0659 27.4797 18.0659H26.2785C24.4767 18.0659 23.8761 19.4656 23.8761 21.1762Z" fill="white"/>
</g>
<defs>
<clipPath id="clip0_226_59">
<rect width="32.3324" height="31.0156" fill="white" transform="translate(0.313843 0.984375)"/>
</clipPath>
</defs>
</svg>
