<svg width="30" height="26" viewBox="0 0 30 26" fill="none" xmlns="http://www.w3.org/2000/svg">
<path d="M20.3331 22.2083H9.4998C6.2498 22.2083 4.08313 20.5833 4.08313 16.7917V9.20834C4.08313 5.41667 6.2498 3.79167 9.4998 3.79167H20.3331C23.5831 3.79167 25.7498 5.41667 25.7498 9.20834V16.7917C25.7498 20.5833 23.5831 22.2083 20.3331 22.2083Z" stroke="#A6A6A6" stroke-width="1.5" stroke-miterlimit="10" stroke-linecap="round" stroke-linejoin="round"/>
<path d="M7.87488 10.2917V15.7083M21.9582 10.2917V15.7083M14.9165 16.25C15.7785 16.25 16.6051 15.9076 17.2146 15.2981C17.8241 14.6886 18.1665 13.862 18.1665 13C18.1665 12.138 17.8241 11.3114 17.2146 10.7019C16.6051 10.0924 15.7785 9.75 14.9165 9.75C14.0546 9.75 13.2279 10.0924 12.6184 10.7019C12.009 11.3114 11.6665 12.138 11.6665 13C11.6665 13.862 12.009 14.6886 12.6184 15.2981C13.2279 15.9076 14.0546 16.25 14.9165 16.25Z" stroke="#A6A6A6" stroke-width="1.5" stroke-miterlimit="10" stroke-linecap="round" stroke-linejoin="round"/>
</svg>
