<svg width="33" height="29" viewBox="0 0 33 29" fill="none" xmlns="http://www.w3.org/2000/svg">
<g clip-path="url(#clip0_226_83)">
<path d="M24.6641 0.56102H8.33594C3.4375 0.56102 0.171875 3.02084 0.171875 8.76042V20.2396C0.171875 25.9792 3.4375 28.439 8.33594 28.439H24.6641C29.5625 28.439 32.8281 25.9792 32.8281 20.2396V8.76042C32.8281 3.02084 29.5625 0.56102 24.6641 0.56102ZM7.11133 18.5997C7.11133 19.2721 6.55617 19.8296 5.88672 19.8296C5.21727 19.8296 4.66211 19.2721 4.66211 18.5997V10.4003C4.66211 9.72795 5.21727 9.17039 5.88672 9.17039C6.55617 9.17039 7.11133 9.72795 7.11133 10.4003V18.5997ZM16.5 19.4197C13.7895 19.4197 11.6016 17.2222 11.6016 14.5C11.6016 11.7778 13.7895 9.58036 16.5 9.58036C19.2105 9.58036 21.3984 11.7778 21.3984 14.5C21.3984 17.2222 19.2105 19.4197 16.5 19.4197ZM28.3379 18.5997C28.3379 19.2721 27.7827 19.8296 27.1133 19.8296C26.4438 19.8296 25.8887 19.2721 25.8887 18.5997V10.4003C25.8887 9.72795 26.4438 9.17039 27.1133 9.17039C27.7827 9.17039 28.3379 9.72795 28.3379 10.4003V18.5997Z" fill="white"/>
</g>
<defs>
<clipPath id="clip0_226_83">
<rect width="33" height="29" fill="white"/>
</clipPath>
</defs>
</svg>
