<svg width="30" height="28" viewBox="0 0 30 28" fill="none" xmlns="http://www.w3.org/2000/svg">
<path d="M18.9643 25.9817H18.805C13.3663 25.9817 10.7449 23.94 10.2917 19.3667C10.2427 18.8883 10.6102 18.4567 11.1246 18.41C11.6146 18.3633 12.0801 18.725 12.1291 19.2033C12.4843 22.8667 14.2972 24.2317 18.8173 24.2317H18.9765C23.962 24.2317 25.7259 22.5517 25.7259 17.8033V10.1967C25.7259 5.44833 23.962 3.76833 18.9765 3.76833H18.8173C14.2727 3.76833 12.4598 5.15667 12.1291 8.89C12.0678 9.36833 11.6391 9.73 11.1246 9.68333C11.0039 9.67435 10.8862 9.64275 10.7784 9.59036C10.6705 9.53796 10.5745 9.46579 10.496 9.37799C10.4175 9.2902 10.3579 9.1885 10.3208 9.07873C10.2836 8.96896 10.2696 8.85328 10.2794 8.73833C10.6959 4.095 13.3295 2.01833 18.805 2.01833H18.9643C24.9787 2.01833 27.5511 4.46833 27.5511 10.1967V17.8033C27.5511 23.5317 24.9787 25.9817 18.9643 25.9817Z" fill="#A6A6A6"/>
<path d="M18.6703 14.875H4.73047C4.22825 14.875 3.81177 14.4783 3.81177 14C3.81177 13.5217 4.22825 13.125 4.73047 13.125H18.6703C19.1725 13.125 19.589 13.5217 19.589 14C19.589 14.4783 19.1725 14.875 18.6703 14.875Z" fill="#A6A6A6"/>
<path d="M7.46207 18.7833C7.22933 18.7833 6.99659 18.7017 6.81285 18.5267L2.7093 14.6183C2.53844 14.4537 2.44263 14.2315 2.44263 14C2.44263 13.7685 2.53844 13.5463 2.7093 13.3817L6.81285 9.47333C7.16808 9.135 7.75605 9.135 8.11128 9.47333C8.46652 9.81166 8.46652 10.3717 8.11128 10.71L4.65695 14L8.11128 17.29C8.46652 17.6283 8.46652 18.1883 8.11128 18.5267C7.93979 18.7017 7.6948 18.7833 7.46207 18.7833Z" fill="#A6A6A6"/>
</svg>
