<svg width="250" height="250" viewBox="0 0 250 250" fill="none" xmlns="http://www.w3.org/2000/svg">
<path d="M125.346 36.9311C145.712 36.9311 165.448 43.9928 181.191 56.9129C196.934 69.833 207.711 87.8122 211.684 107.787C215.657 127.762 212.581 148.496 202.981 166.458C193.38 184.419 177.849 198.496 159.033 206.289C140.217 214.083 119.281 215.112 99.7921 209.2C80.3029 203.288 63.4666 190.801 52.1518 173.867C40.837 156.934 35.7438 136.6 37.74 116.332C39.7363 96.0643 48.6984 77.1154 63.0994 62.7144L125.346 124.961L125.346 36.9311Z" fill="#E2F2FE"/>
<path d="M113.177 37.7763C115.345 37.4736 117.524 37.2519 119.71 37.1117L125.346 124.961L113.177 37.7763Z" fill="#FECFF1"/>
<path d="M119.455 37.1284C121.455 36.9943 123.459 36.9285 125.464 36.9312L125.346 124.961L119.455 37.1284Z" fill="#FDF0D8"/>
<path d="M93.6157 42.8485C99.9916 40.3848 106.633 38.672 113.405 37.7448L125.346 124.961L93.6157 42.8485Z" fill="#DDF4F5"/>
<path d="M82.8298 47.8792C86.5569 45.8234 90.4281 44.0407 94.4131 42.545L125.346 124.961L82.8298 47.8792Z" fill="#FDF0D8"/>
<path d="M63.0994 62.7144C69.0862 56.7276 75.9054 51.6358 83.3462 47.5963L125.346 124.961L63.0994 62.7144Z" fill="#1E9646"/>
</svg>
