<svg width="101" height="100" viewBox="0 0 101 100" fill="none" xmlns="http://www.w3.org/2000/svg">
<circle cx="50.25" cy="50" r="50" fill="#F1F1F1"/>
<path opacity="0.4" d="M50.2499 21.5C43.2633 21.5 37.5833 27.3575 37.5833 34.5625C37.5833 41.63 42.9433 47.35 49.9299 47.5975C50.1433 47.57 50.3566 47.57 50.5166 47.5975H50.7033C53.9815 47.4847 57.0888 46.0616 59.368 43.629C61.6473 41.1964 62.9198 37.9451 62.9166 34.5625C62.9166 27.3575 57.2366 21.5 50.2499 21.5Z" fill="#BEC8D1"/>
<path d="M63.7966 54.9098C56.3566 49.7948 44.2232 49.7948 36.7299 54.9098C33.3432 57.2473 31.4766 60.4098 31.4766 63.7923C31.4766 67.1748 33.3432 70.3098 36.7032 72.6198C40.4366 75.2048 45.3432 76.4973 50.2499 76.4973C55.1566 76.4973 60.0632 75.2048 63.7966 72.6198C67.1566 70.2823 69.0232 67.1473 69.0232 63.7373C68.9966 60.3547 67.1566 57.2198 63.7966 54.9098Z" fill="#BEC8D1"/>
</svg>
