<svg width="138" height="138" viewBox="0 0 138 138" fill="none" xmlns="http://www.w3.org/2000/svg">
<circle cx="69.0176" cy="68.9464" r="62.2389" stroke="#DAE5F5" stroke-width="13"/>
<circle cx="69.0175" cy="68.9464" r="38.3611" stroke="#FDE1F5" stroke-width="13"/>
<path d="M69.0176 6.70743C79.908 6.70743 90.6079 9.56501 100.048 14.9947C109.489 20.4244 117.339 28.2362 122.815 37.6496C128.292 47.0631 131.202 57.7487 131.256 68.639C131.309 79.5294 128.505 90.2432 123.122 99.7103C117.739 109.177 109.966 117.066 100.579 122.589C91.1931 128.112 80.522 131.075 69.6321 131.182C58.7421 131.29 48.0146 128.538 38.521 123.202C29.0275 117.865 21.1004 110.132 15.5314 100.773" stroke="#329DFF" stroke-width="13"/>
<path d="M69.0175 30.5853C76.6047 30.5853 84.0214 32.8352 90.3298 37.0503C96.6383 41.2655 101.555 47.2567 104.459 54.2663C107.362 61.2758 108.122 68.989 106.642 76.4303C105.161 83.8716 101.508 90.7069 96.143 96.0718C90.7781 101.437 83.9428 105.09 76.5014 106.57C69.0601 108.051 61.347 107.291 54.3374 104.387C47.3278 101.484 41.3366 96.5672 37.1215 90.2587C32.9063 83.9503 30.6564 76.5335 30.6564 68.9464" stroke="#E970B1" stroke-width="13"/>
</svg>
