<svg width="138" height="138" viewBox="0 0 138 138" fill="none" xmlns="http://www.w3.org/2000/svg">
<circle cx="68.9349" cy="68.9464" r="62.2389" stroke="#DDF4F5" stroke-width="13"/>
<circle cx="68.9349" cy="68.9464" r="38.3611" stroke="#FDF0D8" stroke-width="13"/>
<path d="M68.9349 6.70743C79.8254 6.70743 90.5252 9.56501 99.9656 14.9947C109.406 20.4244 117.256 28.2362 122.733 37.6496C128.209 47.0631 131.119 57.7487 131.173 68.639C131.227 79.5294 128.422 90.2432 123.039 99.7103C117.656 109.177 109.883 117.066 100.497 122.589C91.1104 128.112 80.4393 131.075 69.5494 131.182C58.6594 131.29 47.9319 128.538 38.4384 123.202C28.9448 117.865 21.0177 110.132 15.4488 100.773" stroke="#1EBFC4" stroke-width="13"/>
<path d="M68.9349 30.5853C76.522 30.5853 83.9387 32.8352 90.2472 37.0503C96.5556 41.2655 101.472 47.2567 104.376 54.2663C107.279 61.2758 108.039 68.989 106.559 76.4303C105.079 83.8716 101.425 90.7069 96.0603 96.0718C90.6954 101.437 83.8601 105.09 76.4188 106.57C68.9774 108.051 61.2643 107.291 54.2547 104.387C47.2451 101.484 41.2539 96.5672 37.0388 90.2587C32.8236 83.9503 30.5738 76.5335 30.5738 68.9464" stroke="#FFA500" stroke-width="13"/>
</svg>
