<svg width="32" height="32" viewBox="0 0 32 32" fill="none" xmlns="http://www.w3.org/2000/svg">
<g clip-path="url(#clip0_226_7)">
<path d="M22.6341 0.166656H9.36579C3.60246 0.166656 0.166626 3.60249 0.166626 9.36582V22.6342C0.166626 28.3975 3.60246 31.8333 9.36579 31.8333H22.6341C28.3975 31.8333 31.8333 28.3975 31.8333 22.6342V9.36582C31.8333 3.60249 28.3975 0.166656 22.6341 0.166656ZM12.7858 20.5917L9.22329 24.1542C8.98579 24.3917 8.68496 24.5025 8.38413 24.5025C8.08329 24.5025 7.76663 24.3917 7.54496 24.1542L6.35746 22.9667C5.88246 22.5075 5.88246 21.7475 6.35746 21.2883C6.81663 20.8292 7.56079 20.8292 8.03579 21.2883L8.38413 21.6367L11.1075 18.9133C11.5666 18.4542 12.3108 18.4542 12.7858 18.9133C13.245 19.3725 13.245 20.1325 12.7858 20.5917ZM12.7858 9.50832L9.22329 13.0708C8.98579 13.3083 8.68496 13.4192 8.38413 13.4192C8.08329 13.4192 7.76663 13.3083 7.54496 13.0708L6.35746 11.8833C5.88246 11.4242 5.88246 10.6642 6.35746 10.205C6.81663 9.74582 7.56079 9.74582 8.03579 10.205L8.38413 10.5533L11.1075 7.82999C11.5666 7.37082 12.3108 7.37082 12.7858 7.82999C13.245 8.28916 13.245 9.04916 12.7858 9.50832ZM24.8033 23.315H16.4908C15.8416 23.315 15.3033 22.7767 15.3033 22.1275C15.3033 21.4783 15.8416 20.94 16.4908 20.94H24.8033C25.1182 20.94 25.4203 21.0651 25.643 21.2878C25.8657 21.5105 25.9908 21.8125 25.9908 22.1275C25.9908 22.4424 25.8657 22.7445 25.643 22.9672C25.4203 23.1899 25.1182 23.315 24.8033 23.315ZM24.8033 12.2317H16.4908C15.8416 12.2317 15.3033 11.6933 15.3033 11.0442C15.3033 10.395 15.8416 9.85666 16.4908 9.85666H24.8033C25.1182 9.85666 25.4203 9.98177 25.643 10.2045C25.8657 10.4272 25.9908 10.7292 25.9908 11.0442C25.9908 11.3591 25.8657 11.6611 25.643 11.8838C25.4203 12.1065 25.1182 12.2317 24.8033 12.2317Z" fill="white"/>
</g>
<defs>
<clipPath id="clip0_226_7">
<rect width="32" height="32" fill="white"/>
</clipPath>
</defs>
</svg>
