<svg width="33" height="28" viewBox="0 0 33 28" fill="none" xmlns="http://www.w3.org/2000/svg">
<mask id="mask0_226_41" style="mask-type:alpha" maskUnits="userSpaceOnUse" x="0" y="0" width="33" height="28">
<rect y="0.119934" width="33" height="27.313" fill="#D9D9D9"/>
</mask>
<g mask="url(#mask0_226_41)">
<path d="M32.1429 21.4869C31.8711 21.4869 31.6436 21.3951 31.4605 21.2114C31.2774 21.0277 31.1859 20.8001 31.1859 20.5286V10.326L17.5002 17.7531C17.2618 17.8883 17.0222 17.9835 16.7814 18.0388C16.5405 18.0941 16.2807 18.1217 16.0018 18.1217C15.7229 18.1217 15.4625 18.0941 15.2204 18.0388C14.9784 17.9835 14.7407 17.8909 14.5072 17.7609L1.39486 10.5873C1.13544 10.4573 0.942459 10.2713 0.815927 10.0293C0.689363 9.78725 0.613799 9.5274 0.589233 9.24974C0.589233 8.96786 0.660996 8.7052 0.804523 8.46175C0.948049 8.2183 1.15027 8.03251 1.4112 7.90438L14.5095 0.765758C14.742 0.636415 14.981 0.539415 15.2264 0.47476C15.4718 0.410104 15.7297 0.377777 16 0.377777C16.2703 0.377777 16.528 0.411558 16.7731 0.47912C17.0182 0.546715 17.2569 0.648075 17.4891 0.7832L32.2806 8.79635C32.5509 8.95607 32.7555 9.15656 32.8943 9.3978C33.0332 9.63901 33.1026 9.89928 33.1026 10.1786V20.5286C33.1026 20.8001 33.0106 21.0277 32.8267 21.2114C32.6428 21.3951 32.4148 21.4869 32.1429 21.4869ZM16 27.4102C15.7388 27.4102 15.4841 27.3764 15.2359 27.3088C14.9877 27.2412 14.746 27.1399 14.5109 27.0047L6.10703 22.4563C5.6156 22.1787 5.2249 21.8012 4.93494 21.3238C4.64498 20.8465 4.5 20.3111 4.5 19.7177V13.7613L13.9027 18.881C14.2465 19.0473 14.5902 19.1957 14.934 19.3264C15.2778 19.457 15.6347 19.5224 16.0049 19.5224C16.3751 19.5224 16.7329 19.4572 17.0781 19.327C17.4234 19.1968 17.7668 19.0444 18.1083 18.87L27.5 13.7613V19.7C27.5 20.2991 27.355 20.8388 27.0651 21.3192C26.7751 21.7996 26.3844 22.1787 25.893 22.4563L17.4891 27.0047C17.254 27.1399 17.0123 27.2412 16.7641 27.3088C16.516 27.3764 16.2612 27.4102 16 27.4102Z" fill="white"/>
</g>
</svg>
