<svg width="30" height="26" viewBox="0 0 30 26" fill="none" xmlns="http://www.w3.org/2000/svg">
<mask id="mask0_334_14" style="mask-type:alpha" maskUnits="userSpaceOnUse" x="0" y="0" width="30" height="26">
<rect x="0.217163" y="0.055542" width="29.3986" height="25.19" fill="#D9D9D9"/>
</mask>
<g mask="url(#mask0_334_14)">
<path d="M14.22 24.4705C13.9904 24.4705 13.7664 24.4408 13.5483 24.3814C13.3301 24.322 13.1176 24.2328 12.9109 24.114L5.52285 20.1154C5.09081 19.8713 4.74734 19.5394 4.49243 19.1198C4.23752 18.7002 4.11006 18.2295 4.11006 17.7078V11.1752L1.39461 9.68785C1.15051 9.56255 0.974454 9.39513 0.866445 9.1856C0.758409 8.97604 0.693593 8.74921 0.671997 8.50511C0.671997 8.25354 0.731407 8.02486 0.850228 7.81907C0.969048 7.61324 1.15051 7.44768 1.39461 7.32237L12.9097 1.04661C13.1141 0.932896 13.3242 0.847621 13.5399 0.790781C13.7557 0.73394 13.9824 0.705521 14.22 0.705521C14.4577 0.705521 14.6842 0.735218 14.8997 0.794614C15.1152 0.854039 15.325 0.943147 15.5292 1.06194L28.5328 8.10653C28.7704 8.24694 28.9503 8.42319 29.0723 8.63528C29.1944 8.84734 29.2554 9.07614 29.2554 9.3217V18.4207C29.2554 18.6594 29.1746 18.8595 29.0129 19.021C28.8512 19.1824 28.6508 19.2632 28.4117 19.2632C28.1727 19.2632 27.9727 19.1824 27.8118 19.021C27.6509 18.8595 27.5704 18.6594 27.5704 18.4207V9.45132L24.33 11.1752V17.7078C24.33 18.2295 24.2026 18.7002 23.9476 19.1198C23.6927 19.5394 23.3493 19.8713 22.9172 20.1154L15.5292 24.114C15.3225 24.2328 15.11 24.322 14.8918 24.3814C14.6736 24.4408 14.4497 24.4705 14.22 24.4705ZM13.8312 14.5452C13.9824 14.6316 14.1174 14.6748 14.2363 14.6748C14.355 14.6748 14.4901 14.6316 14.6413 14.5452L25.7299 8.50511L14.6413 2.49747C14.4901 2.41106 14.355 2.36785 14.2363 2.36785C14.1174 2.36785 13.9824 2.41106 13.8312 2.49747L2.71021 8.50511L13.8312 14.5452ZM13.7988 22.6883C13.95 22.7747 14.0904 22.8179 14.22 22.8179C14.3496 22.8179 14.4901 22.7747 14.6413 22.6883L22.159 18.6248C22.3318 18.5168 22.456 18.3926 22.5316 18.2522C22.6072 18.1118 22.645 17.9335 22.645 17.7175V12.1019L15.5389 15.9807C15.3293 16.0995 15.1165 16.1832 14.9005 16.2318C14.6845 16.2804 14.4577 16.3047 14.22 16.3047C13.9824 16.3047 13.7556 16.2804 13.5396 16.2318C13.3235 16.1832 13.1107 16.0995 12.9012 15.9807L5.79506 12.1019V17.7175C5.79506 17.8903 5.83286 18.0577 5.90846 18.2198C5.98409 18.3818 6.1083 18.5168 6.28109 18.6248L13.7988 22.6883Z" fill="#A6A6A6"/>
</g>
</svg>
